<?xml version="1.0" encoding="UTF-8"?>
<svg id="Layer_1" xmlns="http://www.w3.org/2000/svg" version="1.1" viewBox="0 0 482 220">
  <!-- Generator: Adobe Illustrator 29.7.1, SVG Export Plug-In . SVG Version: 2.1.1 Build 8)  -->
  <path d="M481.5,57.8c-3.5,6.4-16.4,6.1-19.5,9-1.8,1.7-9.5,21.4-12,26-17.9,33.1-48.6,65.4-80.2,85.8-2.9,1.9-17.8,11.2-19.8,11.2h-14.5l44-142c-26.9,32.6-50,68.2-76,101.5-8.2,10.5-17.6,22.8-26.4,32.6-1.9,2.1-7,8.2-9.3,8.7l-14.6-.9-1.7-2.3c11.9-24.1,22.4-49,30.3-74.8s32.1-106.5-16.7-101.7c-35.3,3.5-52,55-47.3,85.1.4,2.9,3,8.8,6.2,8.8h15c.2,0,1.8-2.1,2.5-.5-4.7,5.9-11.6,9-19,9.5,3,14.7,19.3,28.4,33,16-.6,4.5-7.5,10.9-11.7,11.8-17.8,3.7-29.8-13.9-35.9-27.8l-27.3-.9c-9.8,62.1-60.5,110.8-125.5,106-67.6-5-74.2-80.2-9.5-95.5,16.7-3.9,43.7-4.6,57,8,12.9,12,9.5,35.6-11,25.5,1.2-4.1,5.3-5.8,5.9-10.6,2.1-14.8-24.5-16.1-34.5-15.5-53.7,3.7-71.2,67.1-14.7,76.8,34.6,5.9,66.3-12.3,84.6-40.8,10.7-16.5,15.9-35.3,21.6-53.9h-17.5c-.6,0-7.6,1.9-8.7,2.3-3.5,1.3-5.8,6-9.9,2-5.9-21,26.8-15.3,38.9-16.5,5.5-29.5,16.4-56.7,38.1-77.9-32.6-7-73.3-8.8-100,14.5-17,14.8-24.3,40.3-15.5,61.5,3.2,7.6,9.3,13.1,13.5,20-22.8-2-31.5-26.2-30-46.5,2.8-36,35.3-58.6,68-66,30.6-7,66.7-4.1,97,3.5-6.4,6.7-13.2,12.1-19,19.5-16,20.6-22,45.8-27.1,70.9,0,.3,3.3,1.5,3.5,1.5h19.5c-8-48.4,23.1-111.4,80-99.6,49,10.2,32.5,81.9,19.7,114.8l-10.3,24.7c30.7-45.2,64-88.4,99.8-129.7,4.1-3.5,8.8,2.7,12.2,4.7l.3,2.3c-7.2,16.2-12,33.4-16.6,50.5-8.3,30.6-16,62.3-22.8,93.2-.2.9-1.2,2.6,0,3,34.8-27.6,64.9-62.5,81.5-104-18-3.1-31.7-20.1-30-38.5,2.4-26.3,39.9-27.5,47-4.1,1.6,5.4,2.3,13.3,1.8,18.9-.3,3.2-4,16.2-3.8,17.1.9,3.6,14,.4,16.9.6v2h0ZM444.2,14c-15.9,3.5-5,35.9,8.8,38.8,5.9-8.7,7.9-42.5-8.8-38.8Z"/>
</svg>